%TF.GenerationSoftware,KiCad,Pcbnew,10.0.6*%
%TF.CreationDate,2026-09-30T23:41:29+05:30*%
%TF.ProjectId,nfc,6e66632e-6b69-4636-9164-5f7063625858,rev?*%
%TF.SameCoordinates,Original*%
%TF.FileFunction,Legend,Top*%
%TF.FilePolarity,Positive*%
%FSLAX46Y46*%
G04 Gerber Fmt 4.6, Leading zero omitted, Abs format (unit mm)*
G04 Created by KiCad (PCBNEW 10.0.6) date 2026-09-30 23:41:29*
%MOMM*%
%LPD*%
G01*
G04 APERTURE LIST*
G04 Aperture macros list*
%AMRoundRect*
0 Rectangle with rounded corners*
0 $1 Rounding radius*
0 $2 $3 $4 $5 $6 $7 $8 $9 X,Y pos of 4 corners*
0 Add a 4 corners polygon primitive as box body*
4,1,4,$2,$3,$4,$5,$6,$7,$8,$9,$2,$3,0*
0 Add four circle primitives for the rounded corners*
1,1,$1+$1,$2,$3*
1,1,$1+$1,$4,$5*
1,1,$1+$1,$6,$7*
1,1,$1+$1,$8,$9*
0 Add four rect primitives between the rounded corners*
20,1,$1+$1,$2,$3,$4,$5,0*
20,1,$1+$1,$4,$5,$6,$7,0*
20,1,$1+$1,$6,$7,$8,$9,0*
20,1,$1+$1,$8,$9,$2,$3,0*%
G04 Aperture macros list end*
%ADD10C,0.100000*%
%ADD11C,0.150000*%
%ADD12C,0.120000*%
%ADD13C,0.250000*%
%ADD14C,0.060000*%
%ADD15RoundRect,0.200000X0.275000X-0.200000X0.275000X0.200000X-0.275000X0.200000X-0.275000X-0.200000X0*%
%ADD16C,0.300000*%
%ADD17RoundRect,0.225000X-0.225000X-0.250000X0.225000X-0.250000X0.225000X0.250000X-0.225000X0.250000X0*%
%ADD18RoundRect,0.218750X0.256250X-0.218750X0.256250X0.218750X-0.256250X0.218750X-0.256250X-0.218750X0*%
%ADD19RoundRect,0.225000X-0.225000X-0.475000X0.225000X-0.475000X0.225000X0.475000X-0.225000X0.475000X0*%
%ADD20O,0.900000X1.400000*%
%ADD21R,0.400000X0.280000*%
%ADD22R,0.400000X0.220000*%
%ADD23R,0.220000X0.400000*%
G04 APERTURE END LIST*
D10*
X1326500000Y-573500000D02*
X1329500000Y-571000000D01*
X1395000000Y-571500000D01*
X1398000000Y-574000000D01*
X1397500000Y-612500000D01*
X1394500000Y-615500000D01*
X1329500000Y-615000000D01*
X1327000000Y-613000000D01*
X1326500000Y-573500000D01*
G36*
X1395000000Y-571500000D02*
G01*
X1398000000Y-574000000D01*
X1397500000Y-612500000D01*
X1394500000Y-615500000D01*
X1329500000Y-615000000D01*
X1327000000Y-613000000D01*
X1326500000Y-573500000D01*
X1329500000Y-571000000D01*
X1395000000Y-571500000D01*
G37*
X1343500000Y-595430034D02*
X1345500000Y-595430034D01*
X1345500000Y-597290034D01*
X1343500000Y-597290034D01*
X1343500000Y-595430034D01*
X1382500000Y-589500000D02*
X1383000000Y-589500000D01*
X1383000000Y-590500000D01*
X1382500000Y-590500000D01*
X1382500000Y-589500000D01*
D11*
X1345774819Y-594111700D02*
X1345298628Y-594445033D01*
X1345774819Y-594683128D02*
X1344774819Y-594683128D01*
X1344774819Y-594683128D02*
X1344774819Y-594302176D01*
X1344774819Y-594302176D02*
X1344822438Y-594206938D01*
X1344822438Y-594206938D02*
X1344870057Y-594159319D01*
X1344870057Y-594159319D02*
X1344965295Y-594111700D01*
X1344965295Y-594111700D02*
X1345108152Y-594111700D01*
X1345108152Y-594111700D02*
X1345203390Y-594159319D01*
X1345203390Y-594159319D02*
X1345251009Y-594206938D01*
X1345251009Y-594206938D02*
X1345298628Y-594302176D01*
X1345298628Y-594302176D02*
X1345298628Y-594683128D01*
X1344774819Y-593778366D02*
X1344774819Y-593159319D01*
X1344774819Y-593159319D02*
X1345155771Y-593492652D01*
X1345155771Y-593492652D02*
X1345155771Y-593349795D01*
X1345155771Y-593349795D02*
X1345203390Y-593254557D01*
X1345203390Y-593254557D02*
X1345251009Y-593206938D01*
X1345251009Y-593206938D02*
X1345346247Y-593159319D01*
X1345346247Y-593159319D02*
X1345584342Y-593159319D01*
X1345584342Y-593159319D02*
X1345679580Y-593206938D01*
X1345679580Y-593206938D02*
X1345727200Y-593254557D01*
X1345727200Y-593254557D02*
X1345774819Y-593349795D01*
X1345774819Y-593349795D02*
X1345774819Y-593635509D01*
X1345774819Y-593635509D02*
X1345727200Y-593730747D01*
X1345727200Y-593730747D02*
X1345679580Y-593778366D01*
X1344024819Y-594111700D02*
X1343548628Y-594445033D01*
X1344024819Y-594683128D02*
X1343024819Y-594683128D01*
X1343024819Y-594683128D02*
X1343024819Y-594302176D01*
X1343024819Y-594302176D02*
X1343072438Y-594206938D01*
X1343072438Y-594206938D02*
X1343120057Y-594159319D01*
X1343120057Y-594159319D02*
X1343215295Y-594111700D01*
X1343215295Y-594111700D02*
X1343358152Y-594111700D01*
X1343358152Y-594111700D02*
X1343453390Y-594159319D01*
X1343453390Y-594159319D02*
X1343501009Y-594206938D01*
X1343501009Y-594206938D02*
X1343548628Y-594302176D01*
X1343548628Y-594302176D02*
X1343548628Y-594683128D01*
X1343120057Y-593730747D02*
X1343072438Y-593683128D01*
X1343072438Y-593683128D02*
X1343024819Y-593587890D01*
X1343024819Y-593587890D02*
X1343024819Y-593349795D01*
X1343024819Y-593349795D02*
X1343072438Y-593254557D01*
X1343072438Y-593254557D02*
X1343120057Y-593206938D01*
X1343120057Y-593206938D02*
X1343215295Y-593159319D01*
X1343215295Y-593159319D02*
X1343310533Y-593159319D01*
X1343310533Y-593159319D02*
X1343453390Y-593206938D01*
X1343453390Y-593206938D02*
X1344024819Y-593778366D01*
X1344024819Y-593778366D02*
X1344024819Y-593159319D01*
X1342274819Y-594111700D02*
X1341798628Y-594445033D01*
X1342274819Y-594683128D02*
X1341274819Y-594683128D01*
X1341274819Y-594683128D02*
X1341274819Y-594302176D01*
X1341274819Y-594302176D02*
X1341322438Y-594206938D01*
X1341322438Y-594206938D02*
X1341370057Y-594159319D01*
X1341370057Y-594159319D02*
X1341465295Y-594111700D01*
X1341465295Y-594111700D02*
X1341608152Y-594111700D01*
X1341608152Y-594111700D02*
X1341703390Y-594159319D01*
X1341703390Y-594159319D02*
X1341751009Y-594206938D01*
X1341751009Y-594206938D02*
X1341798628Y-594302176D01*
X1341798628Y-594302176D02*
X1341798628Y-594683128D01*
X1342274819Y-593159319D02*
X1342274819Y-593730747D01*
X1342274819Y-593445033D02*
X1341274819Y-593445033D01*
X1341274819Y-593445033D02*
X1341417676Y-593540271D01*
X1341417676Y-593540271D02*
X1341512914Y-593635509D01*
X1341512914Y-593635509D02*
X1341560533Y-593730747D01*
X1346273571Y-594719614D02*
X1346225952Y-594767234D01*
X1346225952Y-594767234D02*
X1346083095Y-594814853D01*
X1346083095Y-594814853D02*
X1345987857Y-594814853D01*
X1345987857Y-594814853D02*
X1345845000Y-594767234D01*
X1345845000Y-594767234D02*
X1345749762Y-594671995D01*
X1345749762Y-594671995D02*
X1345702143Y-594576757D01*
X1345702143Y-594576757D02*
X1345654524Y-594386281D01*
X1345654524Y-594386281D02*
X1345654524Y-594243424D01*
X1345654524Y-594243424D02*
X1345702143Y-594052948D01*
X1345702143Y-594052948D02*
X1345749762Y-593957710D01*
X1345749762Y-593957710D02*
X1345845000Y-593862472D01*
X1345845000Y-593862472D02*
X1345987857Y-593814853D01*
X1345987857Y-593814853D02*
X1346083095Y-593814853D01*
X1346083095Y-593814853D02*
X1346225952Y-593862472D01*
X1346225952Y-593862472D02*
X1346273571Y-593910091D01*
X1347130714Y-594814853D02*
X1347130714Y-594291043D01*
X1347130714Y-594291043D02*
X1347083095Y-594195805D01*
X1347083095Y-594195805D02*
X1346987857Y-594148186D01*
X1346987857Y-594148186D02*
X1346797381Y-594148186D01*
X1346797381Y-594148186D02*
X1346702143Y-594195805D01*
X1347130714Y-594767234D02*
X1347035476Y-594814853D01*
X1347035476Y-594814853D02*
X1346797381Y-594814853D01*
X1346797381Y-594814853D02*
X1346702143Y-594767234D01*
X1346702143Y-594767234D02*
X1346654524Y-594671995D01*
X1346654524Y-594671995D02*
X1346654524Y-594576757D01*
X1346654524Y-594576757D02*
X1346702143Y-594481519D01*
X1346702143Y-594481519D02*
X1346797381Y-594433900D01*
X1346797381Y-594433900D02*
X1347035476Y-594433900D01*
X1347035476Y-594433900D02*
X1347130714Y-594386281D01*
X1347606905Y-594148186D02*
X1347606905Y-595148186D01*
X1347606905Y-594195805D02*
X1347702143Y-594148186D01*
X1347702143Y-594148186D02*
X1347892619Y-594148186D01*
X1347892619Y-594148186D02*
X1347987857Y-594195805D01*
X1347987857Y-594195805D02*
X1348035476Y-594243424D01*
X1348035476Y-594243424D02*
X1348083095Y-594338662D01*
X1348083095Y-594338662D02*
X1348083095Y-594624376D01*
X1348083095Y-594624376D02*
X1348035476Y-594719614D01*
X1348035476Y-594719614D02*
X1347987857Y-594767234D01*
X1347987857Y-594767234D02*
X1347892619Y-594814853D01*
X1347892619Y-594814853D02*
X1347702143Y-594814853D01*
X1347702143Y-594814853D02*
X1347606905Y-594767234D01*
X1349035476Y-594814853D02*
X1348464048Y-594814853D01*
X1348749762Y-594814853D02*
X1348749762Y-593814853D01*
X1348749762Y-593814853D02*
X1348654524Y-593957710D01*
X1348654524Y-593957710D02*
X1348559286Y-594052948D01*
X1348559286Y-594052948D02*
X1348464048Y-594100567D01*
X1339524819Y-598815628D02*
X1338524819Y-598815628D01*
X1338524819Y-598815628D02*
X1338524819Y-598577533D01*
X1338524819Y-598577533D02*
X1338572438Y-598434676D01*
X1338572438Y-598434676D02*
X1338667676Y-598339438D01*
X1338667676Y-598339438D02*
X1338762914Y-598291819D01*
X1338762914Y-598291819D02*
X1338953390Y-598244200D01*
X1338953390Y-598244200D02*
X1339096247Y-598244200D01*
X1339096247Y-598244200D02*
X1339286723Y-598291819D01*
X1339286723Y-598291819D02*
X1339381961Y-598339438D01*
X1339381961Y-598339438D02*
X1339477200Y-598434676D01*
X1339477200Y-598434676D02*
X1339524819Y-598577533D01*
X1339524819Y-598577533D02*
X1339524819Y-598815628D01*
X1339524819Y-597291819D02*
X1339524819Y-597863247D01*
X1339524819Y-597577533D02*
X1338524819Y-597577533D01*
X1338524819Y-597577533D02*
X1338667676Y-597672771D01*
X1338667676Y-597672771D02*
X1338762914Y-597768009D01*
X1338762914Y-597768009D02*
X1338810533Y-597863247D01*
X1343428571Y-574749614D02*
X1343380952Y-574797234D01*
X1343380952Y-574797234D02*
X1343238095Y-574844853D01*
X1343238095Y-574844853D02*
X1343142857Y-574844853D01*
X1343142857Y-574844853D02*
X1343000000Y-574797234D01*
X1343000000Y-574797234D02*
X1342904762Y-574701995D01*
X1342904762Y-574701995D02*
X1342857143Y-574606757D01*
X1342857143Y-574606757D02*
X1342809524Y-574416281D01*
X1342809524Y-574416281D02*
X1342809524Y-574273424D01*
X1342809524Y-574273424D02*
X1342857143Y-574082948D01*
X1342857143Y-574082948D02*
X1342904762Y-573987710D01*
X1342904762Y-573987710D02*
X1343000000Y-573892472D01*
X1343000000Y-573892472D02*
X1343142857Y-573844853D01*
X1343142857Y-573844853D02*
X1343238095Y-573844853D01*
X1343238095Y-573844853D02*
X1343380952Y-573892472D01*
X1343380952Y-573892472D02*
X1343428571Y-573940091D01*
X1344000000Y-574844853D02*
X1343904762Y-574797234D01*
X1343904762Y-574797234D02*
X1343857143Y-574749614D01*
X1343857143Y-574749614D02*
X1343809524Y-574654376D01*
X1343809524Y-574654376D02*
X1343809524Y-574368662D01*
X1343809524Y-574368662D02*
X1343857143Y-574273424D01*
X1343857143Y-574273424D02*
X1343904762Y-574225805D01*
X1343904762Y-574225805D02*
X1344000000Y-574178186D01*
X1344000000Y-574178186D02*
X1344142857Y-574178186D01*
X1344142857Y-574178186D02*
X1344238095Y-574225805D01*
X1344238095Y-574225805D02*
X1344285714Y-574273424D01*
X1344285714Y-574273424D02*
X1344333333Y-574368662D01*
X1344333333Y-574368662D02*
X1344333333Y-574654376D01*
X1344333333Y-574654376D02*
X1344285714Y-574749614D01*
X1344285714Y-574749614D02*
X1344238095Y-574797234D01*
X1344238095Y-574797234D02*
X1344142857Y-574844853D01*
X1344142857Y-574844853D02*
X1344000000Y-574844853D01*
X1344761905Y-574178186D02*
X1344761905Y-574844853D01*
X1344761905Y-574273424D02*
X1344809524Y-574225805D01*
X1344809524Y-574225805D02*
X1344904762Y-574178186D01*
X1344904762Y-574178186D02*
X1345047619Y-574178186D01*
X1345047619Y-574178186D02*
X1345142857Y-574225805D01*
X1345142857Y-574225805D02*
X1345190476Y-574321043D01*
X1345190476Y-574321043D02*
X1345190476Y-574844853D01*
X1346190476Y-574844853D02*
X1345619048Y-574844853D01*
X1345904762Y-574844853D02*
X1345904762Y-573844853D01*
X1345904762Y-573844853D02*
X1345809524Y-573987710D01*
X1345809524Y-573987710D02*
X1345714286Y-574082948D01*
X1345714286Y-574082948D02*
X1345619048Y-574130567D01*
%TO.C,R3*%
D12*
X1346227500Y-594182292D02*
X1346227500Y-593707776D01*
X1347272500Y-594182292D02*
X1347272500Y-593707776D01*
%TO.C,R2*%
X1344477500Y-594182292D02*
X1344477500Y-593707776D01*
X1345522500Y-594182292D02*
X1345522500Y-593707776D01*
%TO.C,R1*%
X1342727500Y-594182292D02*
X1342727500Y-593707776D01*
X1343772500Y-594182292D02*
X1343772500Y-593707776D01*
%TO.C,Cap1*%
X1347204420Y-595280034D02*
X1347485580Y-595280034D01*
X1347204420Y-596300034D02*
X1347485580Y-596300034D01*
%TO.C,D1*%
X1339765000Y-597277534D02*
X1339765000Y-599562534D01*
X1339765000Y-599562534D02*
X1341235000Y-599562534D01*
X1341235000Y-599562534D02*
X1341235000Y-597277534D01*
%TO.C,Con1*%
X1340140000Y-577490034D02*
X1340140000Y-579400034D01*
X1340140000Y-579400034D02*
X1342050000Y-579400034D01*
X1340450000Y-577040034D02*
X1340750000Y-577040034D01*
X1340450000Y-577790034D02*
X1340750000Y-577790034D01*
X1340750000Y-575940034D02*
X1341050000Y-575940034D01*
X1340750000Y-577040034D02*
X1340750000Y-575940034D01*
X1340750000Y-577790034D02*
X1340750000Y-578790034D01*
X1340750000Y-578790034D02*
X1348250000Y-578790034D01*
X1341050000Y-575940034D02*
X1341050000Y-575490034D01*
X1341050000Y-575940034D02*
X1342250000Y-575940034D01*
X1342250000Y-575640034D02*
X1343000000Y-575640034D01*
X1342250000Y-575940034D02*
X1342250000Y-575640034D01*
X1343000000Y-575640034D02*
X1343000000Y-575940034D01*
X1343000000Y-575940034D02*
X1346000000Y-575940034D01*
X1346000000Y-575640034D02*
X1346750000Y-575640034D01*
X1346000000Y-575940034D02*
X1346000000Y-575640034D01*
X1346750000Y-575640034D02*
X1346750000Y-575940034D01*
X1346750000Y-575940034D02*
X1347950000Y-575940034D01*
X1347950000Y-575940034D02*
X1347950000Y-575490034D01*
X1348250000Y-575940034D02*
X1347950000Y-575940034D01*
X1348250000Y-577040034D02*
X1348250000Y-575940034D01*
X1348250000Y-577790034D02*
X1348550000Y-577790034D01*
X1348250000Y-578790034D02*
X1348250000Y-577790034D01*
X1348550000Y-577040034D02*
X1348250000Y-577040034D01*
X1340450000Y-575490034D02*
X1348550000Y-575490034D01*
X1348550000Y-579090034D01*
X1340450000Y-579090034D01*
X1340450000Y-575490034D01*
%TO.C,U1*%
D13*
X1343500000Y-595290034D02*
X1344180000Y-595290034D01*
X1343500000Y-595430034D02*
X1343500000Y-595290034D01*
X1343500000Y-597290034D02*
X1343500000Y-597150034D01*
X1344180000Y-597290034D02*
X1343500000Y-597290034D01*
X1344830000Y-595290034D02*
X1345500000Y-595290034D01*
X1345500000Y-595290034D02*
X1345500000Y-595430034D01*
X1345500000Y-597150034D02*
X1345500000Y-597290034D01*
X1345500000Y-597290034D02*
X1344830000Y-597290034D01*
X1343290000Y-595780034D02*
G75*
G02*
X1343170000Y-595780034I-60000J0D01*
G01*
X1343170000Y-595780034D02*
G75*
G02*
X1343290000Y-595780034I60000J0D01*
G01*
D14*
X1343730000Y-595490034D02*
G75*
G02*
X1343670000Y-595490034I-30000J0D01*
G01*
X1343670000Y-595490034D02*
G75*
G02*
X1343730000Y-595490034I30000J0D01*
G01*
%TD*%
%LPC*%
D15*
%TO.C,R3*%
X1346750000Y-594770034D03*
X1346750000Y-593120034D03*
%TD*%
%TO.C,R2*%
X1345000000Y-594770034D03*
X1345000000Y-593120034D03*
%TD*%
%TO.C,R1*%
X1343250000Y-594770034D03*
X1343250000Y-593120034D03*
%TD*%
D16*
%TO.C,L1*%
X1353000000Y-596290034D03*
X1359000000Y-596290034D03*
%TD*%
D17*
%TO.C,Cap1*%
X1346570000Y-595790034D03*
X1348120000Y-595790034D03*
%TD*%
D18*
%TO.C,D1*%
X1340500000Y-598865034D03*
X1340500000Y-597290034D03*
%TD*%
D19*
%TO.C,Con1*%
X1342000000Y-577790034D03*
D20*
X1343250000Y-577790034D03*
X1344500000Y-577790034D03*
X1345750000Y-577790034D03*
X1347000000Y-577790034D03*
%TD*%
D21*
%TO.C,U1*%
X1343900000Y-595790034D03*
D22*
X1343900000Y-596290034D03*
X1343900000Y-596790034D03*
D23*
X1344500000Y-596890034D03*
D22*
X1345100000Y-596790034D03*
X1345100000Y-596290034D03*
X1345100000Y-595790034D03*
D23*
X1344500000Y-595690034D03*
%TD*%
%LPD*%
M02*
