%TF.GenerationSoftware,KiCad,Pcbnew,10.0.6*%
%TF.CreationDate,2026-09-30T23:58:04+05:30*%
%TF.ProjectId,nfc,6e66632e-6b69-4636-9164-5f7063625858,rev?*%
%TF.SameCoordinates,Original*%
%TF.FileFunction,Copper,L2,Bot*%
%TF.FilePolarity,Positive*%
%FSLAX46Y46*%
G04 Gerber Fmt 4.6, Leading zero omitted, Abs format (unit mm)*
G04 Created by KiCad (PCBNEW 10.0.6) date 2026-09-30 23:58:04*
%MOMM*%
%LPD*%
G01*
G04 APERTURE LIST*
G04 Aperture macros list*
%AMRoundRect*
0 Rectangle with rounded corners*
0 $1 Rounding radius*
0 $2 $3 $4 $5 $6 $7 $8 $9 X,Y pos of 4 corners*
0 Add a 4 corners polygon primitive as box body*
4,1,4,$2,$3,$4,$5,$6,$7,$8,$9,$2,$3,0*
0 Add four circle primitives for the rounded corners*
1,1,$1+$1,$2,$3*
1,1,$1+$1,$4,$5*
1,1,$1+$1,$6,$7*
1,1,$1+$1,$8,$9*
0 Add four rect primitives between the rounded corners*
20,1,$1+$1,$2,$3,$4,$5,0*
20,1,$1+$1,$4,$5,$6,$7,0*
20,1,$1+$1,$6,$7,$8,$9,0*
20,1,$1+$1,$8,$9,$2,$3,0*%
G04 Aperture macros list end*
%ADD10C,0.600000*%
%TA.AperFunction,ComponentPad*%
%ADD11C,0.300000*%
%TD*%
%TA.AperFunction,ComponentPad*%
%ADD12RoundRect,0.225000X-0.225000X-0.475000X0.225000X-0.475000X0.225000X0.475000X-0.225000X0.475000X0*%
%TD*%
%TA.AperFunction,ComponentPad*%
%ADD13O,0.900000X1.400000*%
%TD*%
%TA.AperFunction,ViaPad*%
%ADD14C,0.600000*%
%TD*%
%TA.AperFunction,Conductor*%
%ADD15C,0.200000*%
%TD*%
%TA.AperFunction,Conductor*%
%ADD16C,0.300000*%
%TD*%
G04 APERTURE END LIST*
D10*
G36*
X1362342703Y-594925000D02*
G01*
X1362342703Y-595267703D01*
X1362856834Y-595267703D01*
X1362856834Y-597135397D01*
X1362342703Y-597135397D01*
X1362342703Y-597478253D01*
X1363759311Y-597478253D01*
X1363759311Y-597135397D01*
X1363241669Y-597135397D01*
X1363241669Y-595267703D01*
X1363759311Y-595267703D01*
X1363759311Y-594925000D01*
X1362342703Y-594925000D01*
G37*
G36*
X1367241909Y-594890042D02*
G01*
X1367068525Y-594903847D01*
X1366921217Y-594942936D01*
X1366795363Y-595005319D01*
X1366687478Y-595091085D01*
X1366600023Y-595197613D01*
X1366536599Y-595321852D01*
X1366496926Y-595467260D01*
X1366482924Y-595638494D01*
X1366482924Y-596848717D01*
X1366860585Y-596848717D01*
X1366860585Y-595642005D01*
X1366872965Y-595515142D01*
X1366907378Y-595413776D01*
X1366961946Y-595332427D01*
X1367036401Y-595270392D01*
X1367128004Y-595232355D01*
X1367241909Y-595218854D01*
X1367358117Y-595232402D01*
X1367451357Y-595270497D01*
X1367526910Y-595332427D01*
X1367582533Y-595413915D01*
X1367617529Y-595515282D01*
X1367630102Y-595642005D01*
X1367630102Y-596848717D01*
X1368007763Y-596848717D01*
X1368007763Y-595638494D01*
X1367993561Y-595467485D01*
X1367953286Y-595322156D01*
X1367888803Y-595197835D01*
X1367799699Y-595091085D01*
X1367690127Y-595005195D01*
X1367563062Y-594942807D01*
X1367415138Y-594903792D01*
X1367241909Y-594890042D01*
G37*
G36*
X1369266530Y-594893553D02*
G01*
X1369099076Y-594904301D01*
X1368959261Y-594934336D01*
X1368842554Y-594981243D01*
X1368745224Y-595043915D01*
X1368663223Y-595125751D01*
X1368604980Y-595220969D01*
X1368569023Y-595332228D01*
X1368556393Y-595463555D01*
X1368930696Y-595463555D01*
X1368940907Y-595386308D01*
X1368969934Y-595324005D01*
X1369018165Y-595273046D01*
X1369080144Y-595237002D01*
X1369161170Y-595213478D01*
X1369266530Y-595204810D01*
X1369420403Y-595204810D01*
X1369528182Y-595213466D01*
X1369611521Y-595236995D01*
X1369675636Y-595273046D01*
X1369725790Y-595324369D01*
X1369755974Y-595387755D01*
X1369766617Y-595467066D01*
X1369751349Y-595567287D01*
X1369709310Y-595638867D01*
X1369639425Y-595689289D01*
X1369532296Y-595718941D01*
X1369025187Y-595788856D01*
X1368889765Y-595821675D01*
X1368781947Y-595878305D01*
X1368696375Y-595958452D01*
X1368633970Y-596058686D01*
X1368594889Y-596179928D01*
X1368580970Y-596327564D01*
X1368592898Y-596455961D01*
X1368626743Y-596564239D01*
X1368681283Y-596656354D01*
X1368757588Y-596734992D01*
X1368848684Y-596795139D01*
X1368959851Y-596840436D01*
X1369095148Y-596869644D01*
X1369259508Y-596880163D01*
X1369416892Y-596880163D01*
X1369612729Y-596862731D01*
X1369772989Y-596813974D01*
X1369904767Y-596736671D01*
X1369988236Y-596658229D01*
X1370047828Y-596570461D01*
X1370085841Y-596471658D01*
X1370102451Y-596359010D01*
X1369724637Y-596359010D01*
X1369711737Y-596417918D01*
X1369682609Y-596469148D01*
X1369635336Y-596514562D01*
X1369543679Y-596559321D01*
X1369416892Y-596575776D01*
X1369259508Y-596575776D01*
X1369161154Y-596567387D01*
X1369085237Y-596544549D01*
X1369026866Y-596509372D01*
X1368981132Y-596460279D01*
X1368954086Y-596402935D01*
X1368944740Y-596334586D01*
X1368957542Y-596252254D01*
X1368993024Y-596192793D01*
X1369052467Y-596150300D01*
X1369144103Y-596124690D01*
X1369619766Y-596061645D01*
X1369784382Y-596023209D01*
X1369910205Y-595961766D01*
X1370005188Y-595879123D01*
X1370074116Y-595773527D01*
X1370117998Y-595639916D01*
X1370133897Y-595470577D01*
X1370121324Y-595335236D01*
X1370085716Y-595221643D01*
X1370028447Y-595125506D01*
X1369948425Y-595043915D01*
X1369852986Y-594981732D01*
X1369736208Y-594934799D01*
X1369593762Y-594904484D01*
X1369420403Y-594893553D01*
X1369266530Y-594893553D01*
G37*
G36*
X1371642195Y-594907358D02*
G01*
X1371812216Y-594956457D01*
X1371957322Y-595035214D01*
X1372051980Y-595115282D01*
X1372123369Y-595205873D01*
X1372173795Y-595308343D01*
X1372203855Y-595425087D01*
X1371829706Y-595425087D01*
X1371806946Y-595363427D01*
X1371766027Y-595310912D01*
X1371703768Y-595266024D01*
X1371590356Y-595223778D01*
X1371441512Y-595208321D01*
X1371317761Y-595221762D01*
X1371218084Y-595259459D01*
X1371137124Y-595320215D01*
X1371076837Y-595401391D01*
X1371038915Y-595504213D01*
X1371025231Y-595634983D01*
X1371025231Y-595792367D01*
X1372221410Y-595792367D01*
X1372221410Y-596138581D01*
X1372210141Y-596285311D01*
X1372177727Y-596414920D01*
X1372125239Y-596530286D01*
X1372052445Y-596633785D01*
X1371962661Y-596720206D01*
X1371854130Y-596790862D01*
X1371734316Y-596841240D01*
X1371597822Y-596872670D01*
X1371441512Y-596883674D01*
X1371266732Y-596869641D01*
X1371116735Y-596829721D01*
X1370987158Y-596765696D01*
X1370874716Y-596677289D01*
X1370783468Y-596567808D01*
X1370717368Y-596440058D01*
X1370676045Y-596290458D01*
X1370663481Y-596138581D01*
X1371025231Y-596138581D01*
X1371038659Y-596276881D01*
X1371075605Y-596384792D01*
X1371133613Y-596469072D01*
X1371213091Y-596532511D01*
X1371313624Y-596572079D01*
X1371441512Y-596586309D01*
X1371569545Y-596572262D01*
X1371670017Y-596533264D01*
X1371749258Y-596470904D01*
X1371807201Y-596387653D01*
X1371844173Y-596280370D01*
X1371857641Y-596142092D01*
X1371857641Y-596058134D01*
X1371025231Y-596058134D01*
X1371025231Y-596138581D01*
X1370663481Y-596138581D01*
X1370661461Y-596114157D01*
X1370661461Y-595659560D01*
X1370676047Y-595483176D01*
X1370717374Y-595333527D01*
X1370783475Y-595205755D01*
X1370874716Y-595096275D01*
X1370987149Y-595007939D01*
X1371116722Y-594943961D01*
X1371266723Y-594904067D01*
X1371441512Y-594890042D01*
X1371642195Y-594907358D01*
G37*
G36*
X1375607799Y-594903033D02*
G01*
X1375738622Y-594938949D01*
X1375843837Y-594994914D01*
X1375930408Y-595074142D01*
X1375988055Y-595169616D01*
X1376018776Y-595285258D01*
X1376022287Y-595285258D01*
X1376022287Y-594925000D01*
X1376393078Y-594925000D01*
X1376393078Y-596240095D01*
X1376379747Y-596389621D01*
X1376341985Y-596515657D01*
X1376281376Y-596622707D01*
X1376197073Y-596713926D01*
X1376095438Y-596784721D01*
X1375972479Y-596837615D01*
X1375823922Y-596871513D01*
X1375644474Y-596883674D01*
X1375475868Y-596872703D01*
X1375333117Y-596841844D01*
X1375212100Y-596793292D01*
X1375109429Y-596727970D01*
X1375019608Y-596643097D01*
X1374954897Y-596549830D01*
X1374912730Y-596446658D01*
X1374892511Y-596331075D01*
X1375263302Y-596331075D01*
X1375278405Y-596400077D01*
X1375313677Y-596457443D01*
X1375371685Y-596505861D01*
X1375442160Y-596539300D01*
X1375530559Y-596561007D01*
X1375641115Y-596568907D01*
X1375786215Y-596553175D01*
X1375887332Y-596511602D01*
X1375956390Y-596447943D01*
X1375999434Y-596359240D01*
X1376015265Y-596236584D01*
X1376015265Y-596096755D01*
X1375483579Y-596096755D01*
X1375330531Y-596085313D01*
X1375199702Y-596052885D01*
X1375087339Y-596001218D01*
X1374990513Y-595930517D01*
X1374909901Y-595841449D01*
X1374852644Y-595740388D01*
X1374817460Y-595624939D01*
X1374807765Y-595519578D01*
X1375182855Y-595519578D01*
X1375193187Y-595606803D01*
X1375222853Y-595680348D01*
X1375272003Y-595743366D01*
X1375336409Y-595790934D01*
X1375414963Y-595820372D01*
X1375511666Y-595830835D01*
X1376015265Y-595830835D01*
X1376015265Y-595582471D01*
X1376000869Y-595471780D01*
X1375959678Y-595380689D01*
X1375891006Y-595304492D01*
X1375802804Y-595249179D01*
X1375692332Y-595214006D01*
X1375553646Y-595201299D01*
X1375439993Y-595211916D01*
X1375350785Y-595241145D01*
X1375280704Y-595286937D01*
X1375226964Y-595349909D01*
X1375194342Y-595426112D01*
X1375182855Y-595519578D01*
X1374807765Y-595519578D01*
X1374805194Y-595491643D01*
X1374816729Y-595359489D01*
X1374849775Y-595244873D01*
X1374903348Y-595144534D01*
X1374978301Y-595056127D01*
X1375069365Y-594985333D01*
X1375175442Y-594933775D01*
X1375299425Y-594901454D01*
X1375445110Y-594890042D01*
X1375607799Y-594903033D01*
G37*
G36*
X1377050091Y-594925000D02*
G01*
X1377050091Y-596848717D01*
X1377424241Y-596848717D01*
X1377424241Y-596470904D01*
X1377455974Y-596592511D01*
X1377510628Y-596691999D01*
X1377588647Y-596773460D01*
X1377685216Y-596832842D01*
X1377803445Y-596870272D01*
X1377948905Y-596883674D01*
X1378095484Y-596870962D01*
X1378218521Y-596835051D01*
X1378322473Y-596777649D01*
X1378410524Y-596698203D01*
X1378479296Y-596601769D01*
X1378530493Y-596485562D01*
X1378563212Y-596345634D01*
X1378574930Y-596177049D01*
X1378574930Y-596005774D01*
X1378197269Y-596005774D01*
X1378197269Y-596166669D01*
X1378185108Y-596292960D01*
X1378152212Y-596387714D01*
X1378101404Y-596458395D01*
X1378031829Y-596509673D01*
X1377939119Y-596542695D01*
X1377816098Y-596554863D01*
X1377694870Y-596541391D01*
X1377600760Y-596504125D01*
X1377527433Y-596444648D01*
X1377474538Y-596365431D01*
X1377440333Y-596261230D01*
X1377427752Y-596124690D01*
X1377427752Y-594925000D01*
X1377050091Y-594925000D01*
G37*
G36*
X1379861632Y-594890042D02*
G01*
X1379682761Y-594903717D01*
X1379529720Y-594942512D01*
X1379398088Y-595004439D01*
X1379284455Y-595089405D01*
X1379191303Y-595195834D01*
X1379124202Y-595319719D01*
X1379082412Y-595464504D01*
X1379067690Y-595634983D01*
X1379067690Y-596138581D01*
X1379082414Y-596309143D01*
X1379124208Y-596453977D01*
X1379191310Y-596577884D01*
X1379284455Y-596684311D01*
X1379398088Y-596769278D01*
X1379529720Y-596831205D01*
X1379682761Y-596870000D01*
X1379861632Y-596883674D01*
X1380036003Y-596871075D01*
X1380184700Y-596835435D01*
X1380311992Y-596778833D01*
X1380421253Y-596701714D01*
X1380512820Y-596604006D01*
X1380580294Y-596490742D01*
X1380624730Y-596359123D01*
X1380645040Y-596205137D01*
X1380270891Y-596205137D01*
X1380251876Y-596309456D01*
X1380211592Y-596393061D01*
X1380150143Y-596460371D01*
X1380072050Y-596509555D01*
X1379977314Y-596540368D01*
X1379861632Y-596551352D01*
X1379737584Y-596538451D01*
X1379637900Y-596502392D01*
X1379557244Y-596444648D01*
X1379496837Y-596366780D01*
X1379458992Y-596267996D01*
X1379445350Y-596142092D01*
X1379445350Y-595634983D01*
X1379459076Y-595506700D01*
X1379496998Y-595406860D01*
X1379557244Y-595328916D01*
X1379637888Y-595271261D01*
X1379737572Y-595235250D01*
X1379861632Y-595222365D01*
X1379979682Y-595233447D01*
X1380074816Y-595264306D01*
X1380151823Y-595313193D01*
X1380212086Y-595380558D01*
X1380251925Y-595465280D01*
X1380270891Y-595572090D01*
X1380645040Y-595572090D01*
X1380624762Y-595418123D01*
X1380580360Y-595286158D01*
X1380512879Y-595172260D01*
X1380421253Y-595073682D01*
X1380311887Y-594995791D01*
X1380184559Y-594938679D01*
X1380035899Y-594902742D01*
X1379861632Y-594890042D01*
G37*
G36*
X1381176269Y-594925000D02*
G01*
X1381176269Y-597478253D01*
X1381553929Y-597478253D01*
X1381553929Y-596848717D01*
X1381550418Y-596481437D01*
X1381581891Y-596600703D01*
X1381635931Y-596697845D01*
X1381712992Y-596776971D01*
X1381808147Y-596834557D01*
X1381923620Y-596870755D01*
X1382064549Y-596883674D01*
X1382205443Y-596871343D01*
X1382326460Y-596836157D01*
X1382431313Y-596779330D01*
X1382522657Y-596700034D01*
X1382595560Y-596603726D01*
X1382648812Y-596491347D01*
X1382682263Y-596359816D01*
X1382694085Y-596205137D01*
X1382694085Y-594925000D01*
X1382316425Y-594925000D01*
X1382316425Y-596152625D01*
X1382303866Y-596279372D01*
X1382269296Y-596378131D01*
X1382214911Y-596455181D01*
X1382141154Y-596513326D01*
X1382050685Y-596549154D01*
X1381938612Y-596561885D01*
X1381824643Y-596548578D01*
X1381732477Y-596511039D01*
X1381657122Y-596449838D01*
X1381601716Y-596369410D01*
X1381566622Y-596267660D01*
X1381553929Y-596138581D01*
X1381553929Y-594925000D01*
X1381176269Y-594925000D01*
G37*
G36*
X1385777957Y-594365378D02*
G01*
X1385966939Y-595435620D01*
X1386407645Y-595435620D01*
X1386152259Y-594365378D01*
X1385777957Y-594365378D01*
G37*
G36*
X1390552060Y-594938411D02*
G01*
X1390704559Y-594976342D01*
X1390834835Y-595036644D01*
X1390946441Y-595119020D01*
X1391038648Y-595222878D01*
X1391104655Y-595342390D01*
X1391145519Y-595480643D01*
X1391159848Y-595642005D01*
X1391143649Y-595800559D01*
X1391096803Y-595939218D01*
X1391020933Y-596061140D01*
X1390920184Y-596159647D01*
X1390798664Y-596229404D01*
X1390659608Y-596264519D01*
X1390659608Y-596275052D01*
X1390782925Y-596311759D01*
X1390887962Y-596373585D01*
X1390977887Y-596462050D01*
X1391045784Y-596568900D01*
X1391086421Y-596686188D01*
X1391100314Y-596817118D01*
X1391086367Y-596967751D01*
X1391046631Y-597096038D01*
X1390982367Y-597206339D01*
X1390892249Y-597301635D01*
X1390784321Y-597375849D01*
X1390656339Y-597430855D01*
X1390504465Y-597465808D01*
X1390323927Y-597478253D01*
X1389571964Y-597478253D01*
X1389571964Y-597152952D01*
X1389939091Y-597152952D01*
X1390323927Y-597152952D01*
X1390443692Y-597140858D01*
X1390539893Y-597107110D01*
X1390617629Y-597053271D01*
X1390676875Y-596980486D01*
X1390713163Y-596891702D01*
X1390726011Y-596782161D01*
X1390712896Y-596670508D01*
X1390675960Y-596580695D01*
X1390615797Y-596507693D01*
X1390537028Y-596453790D01*
X1390440210Y-596420067D01*
X1390320416Y-596408012D01*
X1389939091Y-596408012D01*
X1389939091Y-597152952D01*
X1389571964Y-597152952D01*
X1389571964Y-596093244D01*
X1389939091Y-596093244D01*
X1390341329Y-596093244D01*
X1390474068Y-596078916D01*
X1390580551Y-596038814D01*
X1390666630Y-595974328D01*
X1390731606Y-595888473D01*
X1390771471Y-595785212D01*
X1390785546Y-595659560D01*
X1390771445Y-595538749D01*
X1390731620Y-595440755D01*
X1390666630Y-595360362D01*
X1390581228Y-595301021D01*
X1390474750Y-595263710D01*
X1390341329Y-595250300D01*
X1389939091Y-595250300D01*
X1389939091Y-596093244D01*
X1389571964Y-596093244D01*
X1389571964Y-594925000D01*
X1390372775Y-594925000D01*
X1390552060Y-594938411D01*
G37*
G36*
X1392614314Y-594925000D02*
G01*
X1392449966Y-594942625D01*
X1392317024Y-594992108D01*
X1392208565Y-595071851D01*
X1392144187Y-595149752D01*
X1392097578Y-595240373D01*
X1392068466Y-595346196D01*
X1392058203Y-595470577D01*
X1392058203Y-596505861D01*
X1391515984Y-596505861D01*
X1391515984Y-596848717D01*
X1392058203Y-596848717D01*
X1392058203Y-597390784D01*
X1392435864Y-597390784D01*
X1392435864Y-596848717D01*
X1393212404Y-596848717D01*
X1393212404Y-596505861D01*
X1392435864Y-596505861D01*
X1392435864Y-595474088D01*
X1392449516Y-595389960D01*
X1392488376Y-595325405D01*
X1392549044Y-595282709D01*
X1392631716Y-595267703D01*
X1393194849Y-595267703D01*
X1393194849Y-594925000D01*
X1392614314Y-594925000D01*
G37*
G36*
X1393858884Y-594925000D02*
G01*
X1393551138Y-596848717D01*
X1393862395Y-596848717D01*
X1394044356Y-595582471D01*
X1394068780Y-595377917D01*
X1394082824Y-595197788D01*
X1394100226Y-595377917D01*
X1394128162Y-595582471D01*
X1394352102Y-596848717D01*
X1394691294Y-596848717D01*
X1394915234Y-595582471D01*
X1394941338Y-595377917D01*
X1394960724Y-595197788D01*
X1394976295Y-595377917D01*
X1394999193Y-595582471D01*
X1395188023Y-596848717D01*
X1395488747Y-596848717D01*
X1395170468Y-594925000D01*
X1394771741Y-594925000D01*
X1394568867Y-596180560D01*
X1394539100Y-596397479D01*
X1394520019Y-596586309D01*
X1394500632Y-596397479D01*
X1394471017Y-596180560D01*
X1394261121Y-594925000D01*
X1393858884Y-594925000D01*
G37*
D11*
%TO.P,L1,1*%
%TO.N,/LA*%
X1353000000Y-596290034D03*
%TO.P,L1,2*%
%TO.N,/LB*%
X1359000000Y-596290034D03*
%TD*%
D12*
%TO.P,Con1,1,Pin_1_1*%
%TO.N,+2V8*%
X1342000000Y-577790034D03*
D13*
%TO.P,Con1,2,Pin_2_2*%
%TO.N,GND*%
X1343250000Y-577790034D03*
%TO.P,Con1,3,Pin_3_3*%
%TO.N,/SCL*%
X1344500000Y-577790034D03*
%TO.P,Con1,4,Pin_4_4*%
%TO.N,/SDA*%
X1345750000Y-577790034D03*
%TO.P,Con1,5,Pin_5_5*%
%TO.N,/FD*%
X1347000000Y-577790034D03*
%TD*%
D14*
%TO.N,/LB*%
X1344000000Y-594915034D03*
%TO.N,+2V8*%
X1342500000Y-598865034D03*
%TO.N,GND*%
X1347000000Y-597290034D03*
X1340500000Y-595790034D03*
X1342500000Y-596290034D03*
%TO.N,/FD*%
X1339000000Y-598790034D03*
%TO.N,/SCL*%
X1342500000Y-593790034D03*
X1342500000Y-597290034D03*
%TO.N,/SDA*%
X1344449495Y-593615034D03*
X1344040762Y-597940033D03*
%TD*%
%TO.N,/LB*%
D15*
X1344200966Y-593015034D02*
X1343500000Y-593716000D01*
X1359000000Y-596290034D02*
X1355725000Y-593015034D01*
X1343500000Y-594290034D02*
X1344000000Y-594790034D01*
X1355725000Y-593015034D02*
X1344200966Y-593015034D01*
X1343500000Y-593716000D02*
X1343500000Y-594290034D01*
X1344000000Y-594790034D02*
X1344000000Y-594915034D01*
%TO.N,+2V8*%
X1342000000Y-577790034D02*
X1341500000Y-578290034D01*
X1341500000Y-578290034D02*
X1341500000Y-597865034D01*
X1341500000Y-597865034D02*
X1342500000Y-598865034D01*
%TO.N,GND*%
X1340500000Y-577841338D02*
X1340500000Y-595790034D01*
X1343250000Y-577591338D02*
X1342448696Y-576790034D01*
X1341551304Y-576790034D02*
X1340500000Y-577841338D01*
X1343250000Y-577790034D02*
X1343250000Y-577591338D01*
X1342448696Y-576790034D02*
X1341551304Y-576790034D01*
D16*
X1343500000Y-597290034D02*
X1342500000Y-596290034D01*
X1347000000Y-597290034D02*
X1343500000Y-597290034D01*
%TO.N,/FD*%
D15*
X1347000000Y-577729374D02*
X1345260660Y-575990034D01*
X1345260660Y-575990034D02*
X1341219932Y-575990034D01*
X1341219932Y-575990034D02*
X1339000000Y-578209966D01*
X1347000000Y-577790034D02*
X1347000000Y-577729374D01*
X1339000000Y-578209966D02*
X1339000000Y-598790034D01*
%TO.N,/SCL*%
X1341900000Y-594390034D02*
X1342500000Y-593790034D01*
X1344500000Y-577790034D02*
X1344500000Y-591790034D01*
X1341900000Y-596690034D02*
X1341900000Y-594390034D01*
X1344500000Y-591790034D02*
X1342500000Y-593790034D01*
X1342500000Y-597290034D02*
X1341900000Y-596690034D01*
%TO.N,/SDA*%
X1347198530Y-597940033D02*
X1344040762Y-597940033D01*
X1347600000Y-596765539D02*
X1347600000Y-597538563D01*
X1345750000Y-577790034D02*
X1345750000Y-577729374D01*
X1341675000Y-599465034D02*
X1342748529Y-599465034D01*
X1341385618Y-576390034D02*
X1339900000Y-577875652D01*
X1347600000Y-597538563D02*
X1347198530Y-597940033D01*
X1344410660Y-576390034D02*
X1341385618Y-576390034D01*
X1345750000Y-577729374D02*
X1344410660Y-576390034D01*
X1339900000Y-577875652D02*
X1339900000Y-597690034D01*
X1342748529Y-599465034D02*
X1344040762Y-598172801D01*
X1339900000Y-597690034D02*
X1341675000Y-599465034D01*
X1344040762Y-598172801D02*
X1344040762Y-597940033D01*
X1344449495Y-593615034D02*
X1347600000Y-596765539D01*
%TD*%
M02*
